<?xml version="1.0" encoding="utf-8"?>
<!-- Generator: Adobe Illustrator 17.1.0, SVG Export Plug-In . SVG Version: 6.00 Build 0)  -->
<!DOCTYPE svg PUBLIC "-//W3C//DTD SVG 1.1//EN" "http://www.w3.org/Graphics/SVG/1.1/DTD/svg11.dtd">
<svg version="1.1" id="Ebene_1" xmlns="http://www.w3.org/2000/svg" xmlns:xlink="http://www.w3.org/1999/xlink" x="0px" y="0px"
	 viewBox="0 107.8 384.7 67.3" enable-background="new 0 107.8 384.7 67.3" xml:space="preserve">
<g>
	<path fill="#B3B3B3" d="M41.5,108.7h-6.5c-0.6,0-1,0.3-1,1v26.1c0,0.7-0.3,1.2-1,1.2H9.7c-0.7,0-1-0.4-1-1.2v-26.2c0-0.6-0.3-1-1-1
		H1c-0.6,0-1,0.3-1,1v64.4c0,0.6,0.3,1,1,1h6.5c0.6,0,1-0.3,1-1v-28.5c0-0.7,0.3-1.2,1-1.2h23.1c0.7,0,1,0.4,1,1.2v28.5
		c0,0.6,0.3,1,1,1h6.5c0.7,0,1-0.3,1-1v-64.4C42.7,109,42.2,108.7,41.5,108.7z"/>
	<path fill="#B3B3B3" d="M72.6,107.8c-11.5,0-19.3,6.9-19.3,18.2v31.5c0,12.2,7.7,18.3,19.4,18.3c11.7,0,19.3-6.7,19.3-18.3V126
		C91.9,114.2,83.7,107.8,72.6,107.8z M83.2,157.4c0,6.6-4.2,10.9-10.6,10.9c-6.5,0-10.6-4.4-10.6-10.9v-31.5
		c0-6.1,4.2-10.7,10.6-10.7c6.4,0,10.6,4.4,10.6,10.7V157.4z"/>
	<path fill="#B3B3B3" d="M122.1,115.2c5.1,0,7.3,2.2,9.1,4.8c0.3,0.3,0.3,0.6,0.6,1c0.6,0.7,1.3,0.9,2.2,0.3l4.8-3
		c0.6-0.4,0.7-1,0.4-1.9c-3.8-6.1-10.2-8.7-17.2-8.7c-11.4,0-19.4,6.6-19.4,18.2v31.6c0,11.7,7.7,18.1,19.4,18.1
		c5.9,0,10.9-1.7,14.8-6.1l1.2-1.2c0.4-0.6,1.9-1.9,0.9-2.8l-4.8-3.3c-1.2-0.7-1.9-0.2-2.5,0.6c-2.3,3-5.6,5.5-9.8,5.5
		c-6.4,0-10.6-4.6-10.6-10.8v-31.6C111.3,119.5,115.6,115.2,122.1,115.2z"/>
	<path fill="#B3B3B3" d="M168.2,115.2c5.1,0,7.3,2.2,9.1,4.8c0.3,0.3,0.3,0.6,0.6,1c0.6,0.7,1.3,0.9,2.2,0.3l4.8-3
		c0.6-0.4,0.7-1,0.4-1.9c-3.7-6.1-10.2-8.7-17.1-8.7c-11.4,0-19.4,6.6-19.4,18.2v31.6c0,11.7,7.7,18.1,19.4,18.1
		c5.9,0,10.9-1.7,14.8-6.1l1.2-1.2c0.4-0.6,1.9-1.9,0.9-2.8l-4.8-3.3c-1.2-0.7-1.9-0.2-2.5,0.6c-2.3,3-5.6,5.5-9.8,5.5
		c-6.4,0-10.6-4.6-10.6-10.8v-31.6C157.5,119.5,161.8,115.2,168.2,115.2z"/>
	<path fill="#B3B3B3" d="M230.6,167.6h-26.7c-0.7,0-1-0.4-1-1.2v-20.9c0-0.7,0.4-1.2,1.2-1.2h21.8c0.6,0,1-0.3,1-1v-5.4
		c0-0.7-0.3-1-1-1h-21.8c-0.7,0-1-0.3-1-1v-18.7c0-0.7,0.4-1,1.2-1h26.4c0.6,0,1-0.3,1-1v-5.5c0-0.6-0.3-1-1-1h-35c-0.7,0-1,0.3-1,1
		v64.4c0,0.6,0.3,1,1,1h35.3c0.7,0,1-0.3,1-1v-5.4C231.6,167.9,231.4,167.6,230.6,167.6z"/>
	<path fill="#B3B3B3" d="M273.7,144.5c-0.2-0.7-0.1-1.3,0.3-1.7c0.3-0.4,0.7-0.7,1.5-1.2c4.8-3.5,8-8.6,7.8-14.8
		c-0.3-11.2-7.4-18.2-19-18.2h-21.9c-0.7,0-1,0.3-1,1V174c0,0.6,0.3,1,1,1h6.5c0.7,0,1-0.3,1-1v-28.4c0-0.7,0.3-1.2,1-1.2h11.3
		c1.7,0,2,0.4,2.5,1.6l8.8,27.3c0.4,1.6,0.6,1.7,2.7,1.7h5.2c1.6,0,1.6-0.6,1.3-1.9L273.7,144.5z M264.3,137H251c-0.7,0-1-0.4-1-1.2
		v-18.6c0-0.7,0.4-1,1.2-1h13.4c6.4,0,10.4,4.8,10.4,10.7C274.9,132.5,270.4,137,264.3,137z"/>
</g>
<g>
	<path fill="#E8E8E8" d="M338.2,174.7h-7.5c-1,0-1.2-0.1-1.6-1l-10.6-22.4c-0.5-1-1.1-1-1.4,0l-10.9,22.2c-0.7,1.2-1.1,1.2-2.2,1.2
		h-7c-1.3,0-1.4-0.7-1-1.6l15.4-30c0.5-1,0.6-1.9,0.2-2.7l-15.2-29.7c-0.4-0.7-0.4-1.6,0.8-1.6h7.2c1.2,0,1.5,0.2,2,1.2l10.6,22.3
		c0.5,1,1,1,1.4,0l10.4-22.2c0.5-0.8,0.8-1.3,2-1.3h7.2c1.2,0,1.6,0.5,1.1,1.5l-15,29.5c-0.4,1-0.6,2.2-0.2,3.1l15.2,30
		C339.6,174,339.3,174.7,338.2,174.7z"/>
	<path fill="#E8E8E8" d="M365.7,175.4c-11.5,0-19.1-6.1-19.1-18.1v-31c0-11.2,7.6-17.9,19-17.9c11,0,19.1,6.4,19.1,17.9v31
		C384.7,168.8,377.3,175.4,365.7,175.4z M376.1,126.3c0-6.3-4.1-10.6-10.4-10.6c-6.4,0-10.5,4.6-10.5,10.6v31
		c0,6.4,4,10.7,10.4,10.7s10.5-4.2,10.5-10.7V126.3z"/>
</g>
</svg>
