<?xml version="1.0" encoding="utf-8"?>
<!-- Generator: Adobe Illustrator 18.1.0, SVG Export Plug-In . SVG Version: 6.00 Build 0)  -->
<!DOCTYPE svg PUBLIC "-//W3C//DTD SVG 1.1//EN" "http://www.w3.org/Graphics/SVG/1.1/DTD/svg11.dtd">
<svg version="1.1" id="Ebene_1" xmlns="http://www.w3.org/2000/svg" xmlns:xlink="http://www.w3.org/1999/xlink" x="0px" y="0px"
	 viewBox="0 841.9 526.7 131.8" enable-background="new 0 841.9 526.7 131.8" xml:space="preserve">
<g>
	<path fill="#1D1D1B" d="M71.4,973.7c-2.5,0-4.6-2.1-4.6-4.6v-59.3H9.9v59.3c0,2.5-2.1,4.6-4.6,4.6c-2.5,0-4.6-2.1-4.6-4.6V846.5
		c0-2.5,2.1-4.6,4.6-4.6c2.5,0,4.6,2.1,4.6,4.6v54.4h56.9v-54.4c0-2.5,2.1-4.6,4.6-4.6c2.5,0,4.6,2.1,4.6,4.6v122.6
		C76,971.5,73.8,973.7,71.4,973.7z"/>
	<path fill="#1D1D1B" d="M138.9,973.7c-11.6,0-21.5-3.8-28.6-10.9c-7-7-10.7-16.9-10.7-28.6v-52.9c0-11.9,3.6-21.5,10.7-28.6
		s16.7-10.7,28.6-10.7c11.7,0,21.6,3.7,28.6,10.7c7.1,7.3,10.9,17.2,10.9,28.6v52.9c0,11.6-3.8,21.5-10.9,28.6
		C160.5,969.9,150.6,973.7,138.9,973.7z M138.9,850.5c-18.6,0-30.1,11.7-30.1,30.5v53.3c0,18.9,11.5,30.7,30.1,30.7
		c18.7,0,30.3-11.8,30.3-30.7V881C169.2,862.2,157.6,850.5,138.9,850.5z"/>
	<path fill="#1D1D1B" d="M239.7,973.7c-12.3,0-22.7-4-30.2-11.5C202,954.7,198,944.3,198,932v-48.4c0-12.3,4-22.7,11.5-30.2
		c7.5-7.5,17.9-11.5,30.2-11.5c8.8,0,17,2.5,25.2,7.7c1.3,0.8,2.1,2.4,2.1,3.9c0,2.4-1.9,4.2-4.4,4.2c-1,0-1.9-0.3-2.5-0.7
		c-6.6-4.3-13.5-6.5-20.3-6.5c-20,0-32.5,12.7-32.5,33V932c0,20.4,12.4,33,32.5,33c6.7,0,13.5-2.2,20.3-6.7c0.7-0.5,1.5-0.7,2.3-0.7
		c2.2,0,4.6,1.8,4.6,4.4c0,1.5-0.8,3.1-2.1,3.9C256.7,971.1,248.5,973.7,239.7,973.7z"/>
	<path fill="#1D1D1B" d="M323.4,973.7c-12.3,0-22.7-4-30.2-11.5c-7.5-7.5-11.5-17.9-11.5-30.2v-48.4c0-12.3,4-22.7,11.5-30.2
		c7.5-7.5,17.9-11.5,30.2-11.5c8.8,0,17,2.5,25.2,7.7c1.3,0.8,2.1,2.4,2.1,3.9c0,2.4-1.9,4.2-4.4,4.2c-1,0-1.9-0.3-2.5-0.7
		c-6.6-4.3-13.5-6.5-20.3-6.5c-20,0-32.5,12.7-32.5,33V932c0,20.4,12.4,33,32.5,33c6.7,0,13.5-2.2,20.3-6.7c0.7-0.5,1.5-0.7,2.3-0.7
		c2.2,0,4.6,1.8,4.6,4.4c0,1.5-0.8,3.1-2.1,3.9C340.4,971.1,332.2,973.7,323.4,973.7z"/>
	<path fill="#1D1D1B" d="M376.1,971.9c-3.8,0-6.8-3-6.8-6.8V850.4c0-3.8,3-6.8,6.8-6.8h52.4c2.5,0,4.4,1.9,4.4,4.4s-1.9,4.4-4.4,4.4
		h-49.9v48.6h47.6c2.6,0,4.6,1.9,4.6,4.4c0,2.4-2.1,4.4-4.6,4.4h-47.6V963h51.2c2.4,0,4.4,2,4.4,4.4c0,2.4-2.1,4.4-4.4,4.4H376.1z"
		/>
	<path fill="#1D1D1B" d="M522.3,973.7c-1.7,0-3.3-0.9-4-2.4l-31.4-58.1h-24v55.9c0,2.5-2.1,4.6-4.6,4.6c-2.5,0-4.6-2.1-4.6-4.6
		V850.4c0-3.8,3-6.8,6.8-6.8h30.8c10.2,0,18.8,3.3,25,9.5c6.4,6.4,9.8,15.4,9.8,25.9c0,10.1-3.3,18.7-9.7,24.8
		c-4.9,4.9-11.6,8-19.4,8.9l29.2,54.2l0,0.1c0.2,0.6,0.4,1.2,0.4,1.9C526.7,971.2,524.8,973.7,522.3,973.7z M491.3,904.3
		c8,0,14.6-2.3,19.1-6.6c4.3-4.3,6.7-11,6.7-18.7c0-8.2-2.5-15-7.1-19.6c-4.4-4.5-10.8-6.9-18.7-6.9H463v51.8H491.3z"/>
</g>
</svg>
