<?xml version="1.0" encoding="utf-8"?>
<!-- Generator: Adobe Illustrator 18.1.0, SVG Export Plug-In . SVG Version: 6.00 Build 0)  -->
<!DOCTYPE svg PUBLIC "-//W3C//DTD SVG 1.1//EN" "http://www.w3.org/Graphics/SVG/1.1/DTD/svg11.dtd">
<svg version="1.1" id="Ebene_1" xmlns="http://www.w3.org/2000/svg" xmlns:xlink="http://www.w3.org/1999/xlink" x="0px" y="0px"
	 viewBox="0 153.1 175.7 42.5" enable-background="new 0 153.1 175.7 42.5" xml:space="preserve">
<g>
	<path fill="#B3B3B3" d="M25.7,153.7h-4c-0.4,0-0.6,0.2-0.6,0.6v16.2c0,0.4-0.2,0.7-0.6,0.7H6c-0.4,0-0.6-0.2-0.6-0.7v-16.2
		c0-0.4-0.2-0.6-0.6-0.6H0.6c-0.4,0-0.6,0.2-0.6,0.6v39.9c0,0.4,0.2,0.6,0.6,0.6h4c0.4,0,0.6-0.2,0.6-0.6v-17.6
		c0-0.4,0.2-0.7,0.6-0.7h14.3c0.4,0,0.6,0.2,0.6,0.7v17.6c0,0.4,0.2,0.6,0.6,0.6h4c0.4,0,0.6-0.2,0.6-0.6v-39.9
		C26.4,153.9,26.1,153.7,25.7,153.7z"/>
	<path fill="#B3B3B3" d="M44.9,153.1c-7.1,0-11.9,4.3-11.9,11.3v19.5c0,7.6,4.8,11.3,12,11.3s11.9-4.1,11.9-11.3v-19.5
		C56.9,157.1,51.8,153.1,44.9,153.1z M51.5,183.8c0,4.1-2.6,6.7-6.6,6.7c-4,0-6.6-2.7-6.6-6.7v-19.5c0-3.8,2.6-6.6,6.6-6.6
		s6.6,2.7,6.6,6.6V183.8z"/>
	<path fill="#B3B3B3" d="M75.6,157.7c3.2,0,4.5,1.4,5.6,3c0.2,0.2,0.2,0.4,0.4,0.6c0.4,0.4,0.8,0.6,1.4,0.2l3-1.9
		c0.4-0.2,0.4-0.6,0.2-1.2c-2.4-3.8-6.3-5.4-10.6-5.4c-7.1,0-12,4.1-12,11.3v19.6c0,7.2,4.8,11.2,12,11.2c3.7,0,6.7-1.1,9.2-3.8
		l0.7-0.7c0.2-0.4,1.2-1.2,0.6-1.7l-3-2c-0.7-0.4-1.2-0.1-1.5,0.4c-1.4,1.9-3.5,3.4-6.1,3.4c-4,0-6.6-2.8-6.6-6.7v-19.6
		C68.9,160.4,71.6,157.7,75.6,157.7z"/>
	<path fill="#B3B3B3" d="M104.1,157.7c3.2,0,4.5,1.4,5.6,3c0.2,0.2,0.2,0.4,0.4,0.6c0.4,0.4,0.8,0.6,1.4,0.2l3-1.9
		c0.4-0.2,0.4-0.6,0.2-1.2c-2.3-3.8-6.3-5.4-10.6-5.4c-7.1,0-12,4.1-12,11.3v19.6c0,7.2,4.8,11.2,12,11.2c3.7,0,6.7-1.1,9.2-3.8
		l0.7-0.7c0.2-0.4,1.2-1.2,0.6-1.7l-3-2c-0.7-0.4-1.2-0.1-1.5,0.4c-1.4,1.9-3.5,3.4-6.1,3.4c-4,0-6.6-2.8-6.6-6.7v-19.6
		C97.5,160.4,100.1,157.7,104.1,157.7z"/>
	<path fill="#B3B3B3" d="M142.7,190.1h-16.5c-0.4,0-0.6-0.2-0.6-0.7v-12.9c0-0.4,0.2-0.7,0.7-0.7h13.5c0.4,0,0.6-0.2,0.6-0.6v-3.3
		c0-0.4-0.2-0.6-0.6-0.6h-13.5c-0.4,0-0.6-0.2-0.6-0.6V159c0-0.4,0.2-0.6,0.7-0.6h16.3c0.4,0,0.6-0.2,0.6-0.6v-3.4
		c0-0.4-0.2-0.6-0.6-0.6h-21.7c-0.4,0-0.6,0.2-0.6,0.6v39.9c0,0.4,0.2,0.6,0.6,0.6H143c0.4,0,0.6-0.2,0.6-0.6v-3.3
		C143.3,190.3,143.2,190.1,142.7,190.1z"/>
	<path fill="#B3B3B3" d="M169.4,175.8c-0.1-0.4-0.1-0.8,0.2-1.1c0.2-0.2,0.4-0.4,0.9-0.7c3-2.2,5-5.3,4.8-9.2
		c-0.2-6.9-4.6-11.3-11.8-11.3H150c-0.4,0-0.6,0.2-0.6,0.6v39.9c0,0.4,0.2,0.6,0.6,0.6h4c0.4,0,0.6-0.2,0.6-0.6v-17.6
		c0-0.4,0.2-0.7,0.6-0.7h7c1.1,0,1.2,0.2,1.5,1l5.4,16.9c0.2,1,0.4,1.1,1.7,1.1h3.2c1,0,1-0.4,0.8-1.2L169.4,175.8z M163.6,171.2
		h-8.2c-0.4,0-0.6-0.2-0.6-0.7V159c0-0.4,0.2-0.6,0.7-0.6h8.3c4,0,6.4,3,6.4,6.6C170.1,168.4,167.4,171.2,163.6,171.2z"/>
</g>
</svg>
