<?xml version="1.0" encoding="utf-8"?>
<!-- Generator: Adobe Illustrator 17.1.0, SVG Export Plug-In . SVG Version: 6.00 Build 0)  -->
<!DOCTYPE svg PUBLIC "-//W3C//DTD SVG 1.1//EN" "http://www.w3.org/Graphics/SVG/1.1/DTD/svg11.dtd">
<svg version="1.1" id="Ebene_1" xmlns="http://www.w3.org/2000/svg" xmlns:xlink="http://www.w3.org/1999/xlink" x="0px" y="0px"
	 viewBox="0 0 351.5 84.2" enable-background="new 0 0 351.5 84.2" xml:space="preserve">
<g>
	<path fill="#B3B3B3" d="M51.4,1.1h-8.1c-0.8,0-1.2,0.4-1.2,1.3v32.4c0,0.9-0.4,1.5-1.3,1.5H12c-0.9,0-1.3-0.5-1.3-1.5V2.3
		c0-0.8-0.4-1.2-1.3-1.2H1.2C0.4,1.1,0,1.5,0,2.4v79.8c0,0.8,0.4,1.2,1.3,1.2h8.1c0.8,0,1.2-0.4,1.2-1.3V46.8c0-0.9,0.4-1.5,1.3-1.5
		h28.7c0.9,0,1.3,0.5,1.3,1.5v35.4c0,0.8,0.4,1.2,1.3,1.2h8.1c0.9,0,1.3-0.4,1.3-1.3V2.3C52.9,1.5,52.3,1.1,51.4,1.1z"/>
	<path fill="#B3B3B3" d="M90,0C75.7,0,66.1,8.5,66.1,22.6v39c0,15.1,9.6,22.7,24,22.7c14.5,0,23.9-8.3,23.9-22.7v-39
		C114,8,103.8,0,90,0z M103.2,61.5C103.2,69.7,98,75,90,75c-8,0-13.1-5.5-13.1-13.5v-39c0-7.6,5.2-13.3,13.2-13.3
		c7.9,0,13.1,5.5,13.1,13.3V61.5z"/>
	<path fill="#B3B3B3" d="M151.4,9.2c6.3,0,9.1,2.7,11.3,6c0.4,0.4,0.4,0.7,0.8,1.2c0.7,0.9,1.6,1.1,2.7,0.4l5.9-3.7
		c0.8-0.5,0.9-1.3,0.5-2.3C167.9,3.2,159.9,0,151.3,0c-14.1,0-24.1,8.2-24.1,22.6v39.2c0,14.5,9.6,22.4,24,22.4
		c7.3,0,13.5-2.1,18.4-7.6l1.5-1.5c0.5-0.7,2.3-2.4,1.1-3.5l-5.9-4.1c-1.5-0.9-2.4-0.3-3.1,0.7c-2.8,3.7-6.9,6.8-12.1,6.8
		c-7.9,0-13.1-5.7-13.1-13.4V22.4C138,14.5,143.4,9.2,151.4,9.2z"/>
	<path fill="#B3B3B3" d="M208.6,9.2c6.3,0,9.1,2.7,11.3,6c0.4,0.4,0.4,0.7,0.8,1.2c0.7,0.9,1.6,1.1,2.7,0.4l5.9-3.7
		c0.8-0.5,0.9-1.3,0.5-2.3C225.2,3.2,217.2,0,208.6,0c-14.1,0-24.1,8.2-24.1,22.6v39.2c0,14.5,9.6,22.4,24,22.4
		c7.3,0,13.5-2.1,18.4-7.6l1.5-1.5c0.5-0.7,2.3-2.4,1.1-3.5l-5.9-4.1c-1.5-0.9-2.4-0.3-3.1,0.7c-2.8,3.7-6.9,6.8-12.1,6.8
		c-7.9,0-13.1-5.7-13.1-13.4V22.4C195.3,14.5,200.6,9.2,208.6,9.2z"/>
	<path fill="#B3B3B3" d="M285.9,74.2h-33.1c-0.9,0-1.3-0.5-1.3-1.5V46.8c0-0.9,0.5-1.5,1.5-1.5h27c0.8,0,1.2-0.4,1.2-1.2v-6.7
		c0-0.9-0.4-1.3-1.3-1.3h-27c-0.9,0-1.3-0.4-1.3-1.3V11.6c0-0.9,0.5-1.3,1.5-1.3h32.7c0.8,0,1.2-0.4,1.2-1.2V2.3
		c0-0.8-0.4-1.2-1.3-1.2h-43.4c-0.9,0-1.3,0.4-1.3,1.3v79.8c0,0.8,0.4,1.2,1.3,1.2h43.8c0.9,0,1.3-0.4,1.3-1.3v-6.7
		C287.2,74.6,286.9,74.2,285.9,74.2z"/>
	<path fill="#B3B3B3" d="M339.4,45.5c-0.3-0.9-0.1-1.6,0.4-2.1c0.4-0.5,0.9-0.9,1.9-1.5c6-4.4,9.9-10.7,9.7-18.3
		c-0.4-13.9-9.2-22.6-23.6-22.6h-27.2c-0.9,0-1.3,0.4-1.3,1.3v79.8c0,0.8,0.4,1.2,1.3,1.2h8.1c0.9,0,1.3-0.4,1.3-1.3V46.8
		c0-0.9,0.4-1.5,1.3-1.5h14c2.1,0,2.5,0.5,3.1,2l10.9,33.9c0.5,2,0.8,2.1,3.3,2.1h6.5c2,0,2-0.8,1.6-2.3L339.4,45.5z M327.8,36.2
		h-16.6c-0.9,0-1.3-0.5-1.3-1.5V11.6c0-0.9,0.5-1.3,1.5-1.3H328c7.9,0,12.9,6,12.9,13.3C340.9,30.7,335.3,36.2,327.8,36.2z"/>
</g>
</svg>
