<?xml version="1.0" encoding="utf-8"?>
<!-- Generator: Adobe Illustrator 17.1.0, SVG Export Plug-In . SVG Version: 6.00 Build 0)  -->
<!DOCTYPE svg PUBLIC "-//W3C//DTD SVG 1.1//EN" "http://www.w3.org/Graphics/SVG/1.1/DTD/svg11.dtd">
<svg version="1.1" id="Ebene_1" xmlns="http://www.w3.org/2000/svg" xmlns:xlink="http://www.w3.org/1999/xlink" x="0px" y="0px"
	 viewBox="0 0 283.5 283.5" enable-background="new 0 0 283.5 283.5" xml:space="preserve">
<path fill="#2B2B2B" d="M145,3.2C68.4,3.2,6.5,65.2,6.5,141.7c0,18.7,3.7,36.5,10.4,52.8c1.2,37.5-27,50.9-12.9,66.4
	c9,9.9,39.5,8.1,72.5,1.2c20.2,11.6,43.5,18.1,68.5,18.1c76.5,0,138.5-62,138.5-138.5S221.4,3.2,145,3.2z M145,246.8
	c-19.6,0-38-5.4-53.7-14.8c-25.4,6.8-48.4,8.2-52.3,6.5c-7.5-3.3,14-20.1,11.2-51.3c-6.6-13.7-10.3-29.2-10.3-45.4
	c0-58,47-105.1,105.1-105.1s105.1,47,105.1,105.1C250,199.8,202.9,246.8,145,246.8z"/>
<path fill="#2B2B2B" d="M139.7,165.7c0,2.3-1.6,5.2-5,8.4c-3.3,3.2-6.1,5-8.4,5s-5.1-1.6-8.4-5l-15.2-15.4l-15.4,15.4
	c-3.3,3.3-6.1,5-8.4,5s-5.1-1.6-8.4-5c-3.3-3.2-5.1-6.1-5.1-8.4c0-2.3,1.6-5.2,5-8.5l15.4-15.5l-15.4-15.5c-3.3-3.3-5-6.1-5-8.5
	c0-2.3,1.7-5.2,5.1-8.5c3.3-3.3,6.2-5,8.4-5c2.3,0,5.1,1.6,8.4,5l15.4,15.5l15.2-15.5c3.3-3.3,6.1-5,8.4-5c2.3,0,5.1,1.6,8.4,5
	c3.3,3.3,5,6.1,5,8.5c0,2.3-1.6,5.2-5,8.5l-15.4,15.5l15.4,15.5C137.9,160.5,139.7,163.3,139.7,165.7z"/>
<path fill="#2B2B2B" d="M220.7,162.1c-3.9,6-8.8,10.4-14.4,13.2c-5.7,2.8-11.6,4.3-17.7,4.3s-12-1.5-17.8-4.5
	c-5.8-3-10.5-7.4-14.4-13.3c-3.9-5.9-5.9-12.5-5.9-19.9c0-11.1,3.9-20.2,11.7-27.4c7.7-7.2,16.6-10.7,26.6-10.7
	c9.9,0,18.8,3.6,26.5,10.7c7.6,7.2,11.6,16.3,11.6,27.4C226.6,149.3,224.7,156.1,220.7,162.1z M197.9,131.3c-2.9-2.2-6-3.3-9.2-3.3
	c-3.3,0-6.5,1.2-9.2,3.5c-2.9,2.3-4.3,5.7-4.3,10.2s1.5,7.9,4.4,10.2c3,2.3,6,3.3,9,3.3s6.1-1.2,9.1-3.5c3-2.3,4.6-5.8,4.6-10.3
	C202.1,136.8,200.6,133.5,197.9,131.3z"/>
</svg>
