<?xml version="1.0" encoding="utf-8"?>
<!-- Generator: Adobe Illustrator 17.1.0, SVG Export Plug-In . SVG Version: 6.00 Build 0)  -->
<!DOCTYPE svg PUBLIC "-//W3C//DTD SVG 1.1//EN" "http://www.w3.org/Graphics/SVG/1.1/DTD/svg11.dtd">
<svg version="1.1" id="Ebene_1" xmlns="http://www.w3.org/2000/svg" xmlns:xlink="http://www.w3.org/1999/xlink" x="0px" y="0px"
	 viewBox="0 0 245.4 239.9" enable-background="new 0 0 245.4 239.9" xml:space="preserve">
<path fill-rule="evenodd" clip-rule="evenodd" fill="#F4F4F4" d="M125.5,0C59.2,0,5.6,53.7,5.6,119.9c0,16.2,3.2,31.6,9,45.7
	c1,32.5-23.4,44.1-11.2,57.5c7.8,8.6,34.2,7,62.8,1c17.5,10,37.7,15.7,59.3,15.7c66.2,0,119.9-53.7,119.9-119.9
	C245.4,53.7,191.7,0,125.5,0z M125.5,210.9c-17,0-32.9-4.7-46.5-12.8c-22,5.9-41.9,7.1-45.3,5.6c-6.5-2.9,12.1-17.4,9.7-44.4
	c-5.7-11.9-8.9-25.3-8.9-39.3c0-50.2,40.7-91,91-91s91,40.7,91,91C216.4,170.2,175.7,210.9,125.5,210.9z"/>
<path fill-rule="evenodd" clip-rule="evenodd" fill="#F4F4F4" d="M120.9,140.7c0,2-1.4,4.5-4.3,7.3c-2.9,2.8-5.3,4.3-7.3,4.3
	c-2,0-4.4-1.4-7.3-4.3l-13.2-13.3l-13.3,13.3c-2.9,2.9-5.3,4.3-7.3,4.3c-2,0-4.4-1.4-7.3-4.3c-2.9-2.8-4.4-5.3-4.4-7.3
	c0-2,1.4-4.5,4.3-7.4l13.3-13.4l-13.3-13.4c-2.9-2.9-4.3-5.3-4.3-7.4c0-2,1.5-4.5,4.4-7.4c2.9-2.9,5.4-4.3,7.3-4.3
	c2,0,4.4,1.4,7.3,4.3l13.3,13.4l13.2-13.4c2.9-2.9,5.3-4.3,7.3-4.3c2,0,4.4,1.4,7.3,4.3c2.9,2.9,4.3,5.3,4.3,7.4
	c0,2-1.4,4.5-4.3,7.4l-13.3,13.4l13.3,13.4C119.4,136.2,120.9,138.6,120.9,140.7z"/>
<path fill-rule="evenodd" clip-rule="evenodd" fill="#F4F4F4" d="M191.1,137.6c-3.4,5.2-7.6,9-12.5,11.4c-4.9,2.4-10,3.7-15.3,3.7
	c-5.3,0-10.4-1.3-15.4-3.9c-5-2.6-9.1-6.4-12.5-11.5c-3.4-5.1-5.1-10.8-5.1-17.2c0-9.6,3.4-17.5,10.1-23.7c6.7-6.2,14.4-9.3,23-9.3
	c8.6,0,16.3,3.1,22.9,9.3c6.6,6.2,10,14.1,10,23.7C196.2,126.5,194.5,132.4,191.1,137.6z M171.3,110.9c-2.5-1.9-5.2-2.9-8-2.9
	c-2.9,0-5.6,1-8,3c-2.5,2-3.7,4.9-3.7,8.8c0,3.9,1.3,6.8,3.8,8.8c2.6,2,5.2,2.9,7.8,2.9c2.6,0,5.3-1,7.9-3c2.6-2,4-5,4-8.9
	C175,115.7,173.7,112.8,171.3,110.9z"/>
</svg>
